<svg width="512" height="512" viewBox="0 0 512 512" fill="none" xmlns="http://www.w3.org/2000/svg">
  <!-- Background Circle -->
  <circle cx="256" cy="256" r="248" fill="#8b5cf6" stroke="#7c3aed" stroke-width="16"/>
  
  <!-- Book Shape -->
  <path d="M156 146C156 137.163 163.163 130 172 130H340C348.837 130 356 137.163 356 146V366C356 374.837 348.837 382 340 382H172C163.163 382 156 374.837 156 366V146Z" fill="white"/>
  
  <!-- Book Pages -->
  <path d="M172 130H340C348.837 130 356 137.163 356 146V366C356 374.837 348.837 382 340 382H172C163.163 382 156 374.837 156 366V146C156 137.163 163.163 130 172 130Z" stroke="#4c1d95" stroke-width="8"/>
  
  <!-- Bookmark -->
  <path d="M290 130V230L256 200L222 230V130" fill="#8b5cf6" stroke="#7c3aed" stroke-width="8"/>
  
  <!-- Track Lines -->
  <line x1="186" y1="280" x2="326" y2="280" stroke="#4c1d95" stroke-width="8" stroke-linecap="round"/>
  <line x1="186" y1="310" x2="286" y2="310" stroke="#4c1d95" stroke-width="8" stroke-linecap="round"/>
  <line x1="186" y1="340" x2="306" y2="340" stroke="#4c1d95" stroke-width="8" stroke-linecap="round"/>
</svg> 